<svg width="1653" height="1034" xmlns="http://www.w3.org/2000/svg" xmlns:xlink="http://www.w3.org/1999/xlink" xml:space="preserve" overflow="hidden"><defs><clipPath id="clip0"><rect x="2199" y="1993" width="1653" height="1034"/></clipPath><clipPath id="clip1"><rect x="2200" y="1993" width="1650" height="1032"/></clipPath><clipPath id="clip2"><rect x="2330" y="2163" width="1473" height="708"/></clipPath><clipPath id="clip3"><rect x="2200" y="1993" width="1650" height="1032"/></clipPath><clipPath id="clip4"><rect x="2200" y="1993" width="1650" height="1032"/></clipPath><clipPath id="clip5"><rect x="2200" y="1993" width="1650" height="1032"/></clipPath><clipPath id="clip6"><rect x="2200" y="1993" width="1650" height="1032"/></clipPath><clipPath id="clip7"><rect x="2200" y="1993" width="1650" height="1032"/></clipPath><clipPath id="clip8"><rect x="2200" y="1993" width="1650" height="1032"/></clipPath><clipPath id="clip9"><rect x="2200" y="1993" width="1650" height="1032"/></clipPath><clipPath id="clip10"><rect x="2200" y="1993" width="1650" height="1032"/></clipPath><clipPath id="clip11"><rect x="2200" y="1993" width="1650" height="1032"/></clipPath><clipPath id="clip12"><rect x="2200" y="1993" width="1650" height="1032"/></clipPath><clipPath id="clip13"><rect x="2200" y="1993" width="1650" height="1032"/></clipPath><clipPath id="clip14"><rect x="2200" y="1993" width="1650" height="1032"/></clipPath><clipPath id="clip15"><rect x="2200" y="1993" width="1650" height="1032"/></clipPath><clipPath id="clip16"><rect x="2200" y="1993" width="1650" height="1032"/></clipPath><clipPath id="clip17"><rect x="2200" y="1993" width="1650" height="1032"/></clipPath><clipPath id="clip18"><rect x="2200" y="1993" width="1650" height="1032"/></clipPath><clipPath id="clip19"><rect x="2200" y="1993" width="1650" height="1032"/></clipPath><clipPath id="clip20"><rect x="2200" y="1993" width="1650" height="1032"/></clipPath><clipPath id="clip21"><rect x="2200" y="1993" width="1650" height="1032"/></clipPath><clipPath id="clip22"><rect x="2200" y="1993" width="1650" height="1032"/></clipPath><clipPath id="clip23"><rect x="2200" y="1993" width="1650" height="1032"/></clipPath><clipPath id="clip24"><rect x="2200" y="1993" width="1650" height="1032"/></clipPath></defs><g clip-path="url(#clip0)" transform="translate(-2199 -1993)"><rect x="2200" y="1994" width="1650" height="1031" fill="#FFFFFF"/><g clip-path="url(#clip1)"><path d="M2330.5 2789.59 3799.5 2789.59M2330.5 2711.59 3799.5 2711.59M2330.5 2633.59 3799.5 2633.59M2330.5 2555.58 3799.5 2555.58M2330.5 2476.58 3799.5 2476.58M2330.5 2398.58 3799.5 2398.58M2330.5 2320.58 3799.5 2320.58M2330.5 2241.57 3799.5 2241.57M2330.5 2163.5 3799.5 2163.5" stroke="#D9D9D9" stroke-width="3.4375" stroke-linejoin="round" stroke-miterlimit="10" fill="none"/></g><g clip-path="url(#clip2)"><path d="M2432.08 2198.07 2524.08 2198.07 2524.08 2868 2432.08 2868ZM2725.09 2384.08 2817.09 2384.08 2817.09 2868 2725.09 2868ZM3019.1 2712.09 3111.1 2712.09 3111.1 2868 3019.1 2868ZM3313.11 2707.09 3405.11 2707.09 3405.11 2868 3313.11 2868ZM3607.12 2721.09 3699.12 2721.09 3699.12 2868 3607.12 2868Z" fill="#4472C4"/></g><g clip-path="url(#clip3)"><path d="M2330.5 2868.5 3799.5 2868.5" stroke="#D9D9D9" stroke-width="3.4375" stroke-linejoin="round" stroke-miterlimit="10" fill="none" fill-rule="evenodd"/></g><g clip-path="url(#clip4)"><text fill="#595959" font-family="Calibri,Calibri_MSFontService,sans-serif" font-weight="400" font-size="41" transform="matrix(1 0 0 1 2271.59 2880)">0</text></g><g clip-path="url(#clip5)"><text fill="#595959" font-family="Calibri,Calibri_MSFontService,sans-serif" font-weight="400" font-size="41" transform="matrix(1 0 0 1 2250.69 2802)">50</text></g><g clip-path="url(#clip6)"><text fill="#595959" font-family="Calibri,Calibri_MSFontService,sans-serif" font-weight="400" font-size="41" transform="matrix(1 0 0 1 2229.79 2723)">100</text></g><g clip-path="url(#clip7)"><text fill="#595959" font-family="Calibri,Calibri_MSFontService,sans-serif" font-weight="400" font-size="41" transform="matrix(1 0 0 1 2229.79 2645)">150</text></g><g clip-path="url(#clip8)"><text fill="#595959" font-family="Calibri,Calibri_MSFontService,sans-serif" font-weight="400" font-size="41" transform="matrix(1 0 0 1 2229.79 2567)">200</text></g><g clip-path="url(#clip9)"><text fill="#595959" font-family="Calibri,Calibri_MSFontService,sans-serif" font-weight="400" font-size="41" transform="matrix(1 0 0 1 2229.79 2488)">250</text></g><g clip-path="url(#clip10)"><text fill="#595959" font-family="Calibri,Calibri_MSFontService,sans-serif" font-weight="400" font-size="41" transform="matrix(1 0 0 1 2229.79 2410)">300</text></g><g clip-path="url(#clip11)"><text fill="#595959" font-family="Calibri,Calibri_MSFontService,sans-serif" font-weight="400" font-size="41" transform="matrix(1 0 0 1 2229.79 2332)">350</text></g><g clip-path="url(#clip12)"><text fill="#595959" font-family="Calibri,Calibri_MSFontService,sans-serif" font-weight="400" font-size="41" transform="matrix(1 0 0 1 2229.79 2254)">400</text></g><g clip-path="url(#clip13)"><text fill="#595959" font-family="Calibri,Calibri_MSFontService,sans-serif" font-weight="400" font-size="41" transform="matrix(1 0 0 1 2229.79 2175)">450</text></g><g clip-path="url(#clip14)"><text fill="#595959" font-family="Calibri,Calibri_MSFontService,sans-serif" font-weight="400" font-size="41" transform="matrix(1 0 0 1 2385.5 2934)">ð</text></g><g clip-path="url(#clip15)"><text fill="#595959" font-family="Calibri,Calibri_MSFontService,sans-serif" font-weight="400" font-size="41" transform="matrix(1 0 0 1 2407.18 2934)">„ð</text></g><g clip-path="url(#clip16)"><text fill="#595959" font-family="Calibri,Calibri_MSFontService,sans-serif" font-weight="400" font-size="41" transform="matrix(1 0 0 1 2446.12 2934)">§</text></g><g clip-path="url(#clip17)"><text fill="#595959" font-family="Calibri,Calibri_MSFontService,sans-serif" font-weight="400" font-size="41" transform="matrix(1 0 0 1 2475.98 2934)">ð</text></g><g clip-path="url(#clip18)"><text fill="#595959" font-family="Calibri,Calibri_MSFontService,sans-serif" font-weight="400" font-size="41" transform="matrix(1 0 0 1 2497.66 2934)">¦ð¢ </text></g><g clip-path="url(#clip19)"><text fill="#595959" font-family="Calibri,Calibri_MSFontService,sans-serif" font-weight="400" font-size="41" transform="matrix(1 0 0 1 2353.74 2985)">ð</text></g><g clip-path="url(#clip20)"><text fill="#595959" font-family="Calibri,Calibri_MSFontService,sans-serif" font-weight="400" font-size="41" transform="matrix(1 0 0 1 2375.42 2985)">œðšð¬ð¢ð</text></g><g clip-path="url(#clip21)"><text fill="#595959" font-family="Calibri,Calibri_MSFontService,sans-serif" font-weight="400" font-size="41" transform="matrix(1 0 0 1 2554.38 2985)">ðš </text></g><g clip-path="url(#clip22)"><text fill="#595959" font-family="Calibri,Calibri_MSFontService,sans-serif" font-weight="400" font-size="41" transform="matrix(1 0 0 1 2839.73 2934)">taekook Â¡! ðŸ’Œ                 </text></g><g clip-path="url(#clip23)"><text fill="#595959" font-family="Calibri,Calibri_MSFontService,sans-serif" font-weight="400" font-size="41" transform="matrix(1 0 0 1 3228.64 2934)">Procursus Repo</text></g><g clip-path="url(#clip24)"><text fill="#595959" font-family="Calibri,Calibri_MSFontService,sans-serif" font-weight="400" font-size="64" transform="matrix(1 0 0 1 2711.64 2089)">user_friends by location </text></g><rect x="2200.5" y="1994.5" width="1650" height="1031" stroke="#D9D9D9" stroke-width="3.4375" stroke-linejoin="round" stroke-miterlimit="10" fill="none"/></g></svg>