<svg width="1653" height="1034" xmlns="http://www.w3.org/2000/svg" xmlns:xlink="http://www.w3.org/1999/xlink" xml:space="preserve" overflow="hidden"><defs><clipPath id="clip0"><rect x="2199" y="205" width="1653" height="1034"/></clipPath><clipPath id="clip1"><rect x="2200" y="206" width="1650" height="1031"/></clipPath><clipPath id="clip2"><rect x="2330" y="376" width="1473" height="526"/></clipPath><clipPath id="clip3"><rect x="2200" y="206" width="1650" height="1031"/></clipPath><clipPath id="clip4"><rect x="2200" y="206" width="1650" height="1031"/></clipPath><clipPath id="clip5"><rect x="2200" y="206" width="1650" height="1031"/></clipPath><clipPath id="clip6"><rect x="2200" y="206" width="1650" height="1031"/></clipPath><clipPath id="clip7"><rect x="2200" y="206" width="1650" height="1031"/></clipPath><clipPath id="clip8"><rect x="2200" y="206" width="1650" height="1031"/></clipPath><clipPath id="clip9"><rect x="2200" y="206" width="1650" height="1031"/></clipPath><clipPath id="clip10"><rect x="2200" y="206" width="1650" height="1031"/></clipPath><clipPath id="clip11"><rect x="2200" y="206" width="1650" height="1031"/></clipPath><clipPath id="clip12"><rect x="2200" y="206" width="1650" height="1031"/></clipPath><clipPath id="clip13"><rect x="2200" y="206" width="1650" height="1031"/></clipPath><clipPath id="clip14"><rect x="2200" y="206" width="1650" height="1031"/></clipPath><clipPath id="clip15"><rect x="2200" y="206" width="1650" height="1031"/></clipPath><clipPath id="clip16"><rect x="2200" y="206" width="1650" height="1031"/></clipPath><clipPath id="clip17"><rect x="2200" y="206" width="1650" height="1031"/></clipPath><clipPath id="clip18"><rect x="2200" y="206" width="1650" height="1031"/></clipPath><clipPath id="clip19"><rect x="2200" y="206" width="1650" height="1031"/></clipPath><clipPath id="clip20"><rect x="2200" y="206" width="1650" height="1031"/></clipPath><clipPath id="clip21"><rect x="2200" y="206" width="1650" height="1031"/></clipPath><clipPath id="clip22"><rect x="2200" y="206" width="1650" height="1031"/></clipPath></defs><g clip-path="url(#clip0)" transform="translate(-2199 -205)"><rect x="2200" y="206" width="1650" height="1031" fill="#FFFFFF"/><g clip-path="url(#clip1)"><path d="M2330.5 824.527 3799.5 824.527M2330.5 749.525 3799.5 749.525M2330.5 675.522 3799.5 675.522M2330.5 600.52 3799.5 600.52M2330.5 525.517 3799.5 525.517M2330.5 450.515 3799.5 450.515M2330.5 376.5 3799.5 376.5" stroke="#D9D9D9" stroke-width="3.4375" stroke-linejoin="round" stroke-miterlimit="10" fill="none"/></g><g clip-path="url(#clip2)"><path d="M2371.08 847.028 2407.08 847.028 2407.08 899 2371.08 899ZM2534.08 821.027 2571.08 821.027 2571.08 899 2534.08 899ZM2697.09 828.027 2734.09 828.027 2734.09 899 2697.09 899ZM2860.09 828.027 2897.1 828.027 2897.1 899 2860.09 899ZM3024.1 895.029 3060.1 895.029 3060.1 899 3024.1 899ZM3187.1 776.025 3223.11 776.025 3223.11 899 3187.1 899ZM3350.11 410.013 3387.11 410.013 3387.11 899 3350.11 899ZM3513.12 877.029 3550.12 877.029 3550.12 899 3513.12 899ZM3676.12 832.027 3713.12 832.027 3713.12 899 3676.12 899Z" fill="#4472C4"/></g><g clip-path="url(#clip3)"><path d="M2330.5 899.5 3799.5 899.5" stroke="#D9D9D9" stroke-width="3.4375" stroke-linejoin="round" stroke-miterlimit="10" fill="none" fill-rule="evenodd"/></g><g clip-path="url(#clip4)"><text fill="#595959" font-family="Calibri,Calibri_MSFontService,sans-serif" font-weight="400" font-size="41" transform="matrix(1 0 0 1 2271.59 911)">0</text></g><g clip-path="url(#clip5)"><text fill="#595959" font-family="Calibri,Calibri_MSFontService,sans-serif" font-weight="400" font-size="41" transform="matrix(1 0 0 1 2250.69 836)">20</text></g><g clip-path="url(#clip6)"><text fill="#595959" font-family="Calibri,Calibri_MSFontService,sans-serif" font-weight="400" font-size="41" transform="matrix(1 0 0 1 2250.69 761)">40</text></g><g clip-path="url(#clip7)"><text fill="#595959" font-family="Calibri,Calibri_MSFontService,sans-serif" font-weight="400" font-size="41" transform="matrix(1 0 0 1 2250.69 687)">60</text></g><g clip-path="url(#clip8)"><text fill="#595959" font-family="Calibri,Calibri_MSFontService,sans-serif" font-weight="400" font-size="41" transform="matrix(1 0 0 1 2250.69 612)">80</text></g><g clip-path="url(#clip9)"><text fill="#595959" font-family="Calibri,Calibri_MSFontService,sans-serif" font-weight="400" font-size="41" transform="matrix(1 0 0 1 2229.79 537)">100</text></g><g clip-path="url(#clip10)"><text fill="#595959" font-family="Calibri,Calibri_MSFontService,sans-serif" font-weight="400" font-size="41" transform="matrix(1 0 0 1 2229.79 462)">120</text></g><g clip-path="url(#clip11)"><text fill="#595959" font-family="Calibri,Calibri_MSFontService,sans-serif" font-weight="400" font-size="41" transform="matrix(1 0 0 1 2229.79 388)">140</text></g><g clip-path="url(#clip12)"><text fill="#595959" font-family="Calibri,Calibri_MSFontService,sans-serif" font-weight="400" font-size="41" transform="matrix(0.707107 -0.707107 0.707107 0.707107 2323.97 1051)">['SUGA']</text></g><g clip-path="url(#clip13)"><text fill="#595959" font-family="Calibri,Calibri_MSFontService,sans-serif" font-weight="400" font-size="41" transform="matrix(0.707107 -0.707107 0.707107 0.707107 2487.17 1051)">['SUGA']</text></g><g clip-path="url(#clip14)"><text fill="#595959" font-family="Calibri,Calibri_MSFontService,sans-serif" font-weight="400" font-size="41" transform="matrix(0.707107 -0.707107 0.707107 0.707107 2650.37 1051)">['SUGA']</text></g><g clip-path="url(#clip15)"><text fill="#595959" font-family="Calibri,Calibri_MSFontService,sans-serif" font-weight="400" font-size="41" transform="matrix(0.707107 -0.707107 0.707107 0.707107 2933.01 1095)">['JungKook',…</text></g><g clip-path="url(#clip16)"><text fill="#595959" font-family="Calibri,Calibri_MSFontService,sans-serif" font-weight="400" font-size="41" transform="matrix(0.707107 -0.707107 0.707107 0.707107 3466.39 1051)">['SUGA']</text></g><g clip-path="url(#clip17)"><text fill="#595959" font-family="Calibri,Calibri_MSFontService,sans-serif" font-weight="400" font-size="41" transform="matrix(0.707107 -0.707107 0.707107 0.707107 3629.59 1051)">['SUGA']</text></g><g clip-path="url(#clip18)"><text fill="#595959" font-family="Calibri,Calibri_MSFontService,sans-serif" font-weight="400" font-size="64" transform="matrix(1 0 0 1 2668.29 302)">Hashtags and User Follwers </text></g><g clip-path="url(#clip19)"><rect x="2450" y="1160" width="22" height="22.9996" fill="#4472C4"/></g><g clip-path="url(#clip20)"><text fill="#595959" font-family="Calibri,Calibri_MSFontService,sans-serif" font-weight="400" font-size="41" transform="matrix(1 0 0 1 2481.86 1183)">user_followers 454 25 32</text></g><g clip-path="url(#clip21)"><rect x="2992" y="1160" width="22" height="22.9996" fill="#ED7D31"/></g><g clip-path="url(#clip22)"><text fill="#595959" font-family="Calibri,Calibri_MSFontService,sans-serif" font-weight="400" font-size="41" transform="matrix(1 0 0 1 3024.06 1183)">hashtags ['SUGA'] ['SUGA'] ['SUGA']</text></g><rect x="2200.5" y="206.5" width="1650" height="1031" stroke="#D9D9D9" stroke-width="3.4375" stroke-linejoin="round" stroke-miterlimit="10" fill="none"/></g></svg>