<svg width="1653" height="1034" xmlns="http://www.w3.org/2000/svg" xmlns:xlink="http://www.w3.org/1999/xlink" xml:space="preserve" overflow="hidden"><defs><clipPath id="clip0"><rect x="-1" y="1993" width="1653" height="1034"/></clipPath><clipPath id="clip1"><rect x="0" y="1993" width="1650" height="1032"/></clipPath><clipPath id="clip2"><rect x="305" y="2163" width="1298" height="429"/></clipPath><clipPath id="clip3"><rect x="0" y="1993" width="1650" height="1032"/></clipPath><clipPath id="clip4"><rect x="0" y="1993" width="1650" height="1032"/></clipPath><clipPath id="clip5"><rect x="0" y="1993" width="1650" height="1032"/></clipPath><clipPath id="clip6"><rect x="0" y="1993" width="1650" height="1032"/></clipPath><clipPath id="clip7"><rect x="0" y="1993" width="1650" height="1032"/></clipPath><clipPath id="clip8"><rect x="0" y="1993" width="1650" height="1032"/></clipPath><clipPath id="clip9"><rect x="0" y="1993" width="1650" height="1032"/></clipPath><clipPath id="clip10"><rect x="0" y="1993" width="1650" height="1032"/></clipPath><clipPath id="clip11"><rect x="0" y="1993" width="1650" height="1032"/></clipPath><clipPath id="clip12"><rect x="0" y="1993" width="1650" height="1032"/></clipPath><clipPath id="clip13"><rect x="0" y="1993" width="1650" height="1032"/></clipPath><clipPath id="clip14"><rect x="0" y="1993" width="1650" height="1032"/></clipPath><clipPath id="clip15"><rect x="0" y="1993" width="1650" height="1032"/></clipPath><clipPath id="clip16"><path d="M-873.711 3817.23 1218.42 1725.09 1254.02 1760.7-838.11 3852.83Z" fill-rule="evenodd" clip-rule="evenodd"/></clipPath><clipPath id="clip17"><rect x="0" y="1993" width="1650" height="1032"/></clipPath><clipPath id="clip18"><path d="M-873.711 3817.23 1218.42 1725.09 1254.02 1760.7-838.11 3852.83Z" fill-rule="evenodd" clip-rule="evenodd"/></clipPath><clipPath id="clip19"><rect x="0" y="1993" width="1650" height="1032"/></clipPath><clipPath id="clip20"><path d="M-873.711 3817.23 1218.42 1725.09 1254.02 1760.7-838.11 3852.83Z" fill-rule="evenodd" clip-rule="evenodd"/></clipPath><clipPath id="clip21"><rect x="0" y="1993" width="1650" height="1032"/></clipPath><clipPath id="clip22"><path d="M-873.712 3817.23 1218.42 1725.09 1254.02 1760.7-838.11 3852.83Z" fill-rule="evenodd" clip-rule="evenodd"/></clipPath><clipPath id="clip23"><rect x="0" y="1993" width="1650" height="1032"/></clipPath><clipPath id="clip24"><path d="M-873.711 3817.23 1218.42 1725.09 1254.02 1760.7-838.11 3852.83Z" fill-rule="evenodd" clip-rule="evenodd"/></clipPath><clipPath id="clip25"><rect x="0" y="1993" width="1650" height="1032"/></clipPath><clipPath id="clip26"><path d="M-873.711 3817.23 1218.42 1725.09 1254.02 1760.7-838.11 3852.83Z" fill-rule="evenodd" clip-rule="evenodd"/></clipPath><clipPath id="clip27"><rect x="0" y="1993" width="1650" height="1032"/></clipPath><clipPath id="clip28"><path d="M-448.759 3554 998.062 2107.18 1033.66 2142.78-413.157 3589.6Z" fill-rule="evenodd" clip-rule="evenodd"/></clipPath><clipPath id="clip29"><rect x="0" y="1993" width="1650" height="1032"/></clipPath><clipPath id="clip30"><rect x="0" y="1993" width="1650" height="1032"/></clipPath><clipPath id="clip31"><path d="M558.659 3031.76 1287.8 2302.62 1323.4 2338.23 594.261 3067.36Z" fill-rule="evenodd" clip-rule="evenodd"/></clipPath><clipPath id="clip32"><rect x="0" y="1993" width="1650" height="1032"/></clipPath><clipPath id="clip33"><rect x="0" y="1993" width="1650" height="1032"/></clipPath><clipPath id="clip34"><path d="M990.493 3085.11 1812.99 2262.62 1848.59 2298.22 1026.09 3120.71Z" fill-rule="evenodd" clip-rule="evenodd"/></clipPath><clipPath id="clip35"><rect x="0" y="1993" width="1650" height="1032"/></clipPath><clipPath id="clip36"><rect x="0" y="1993" width="1650" height="1032"/></clipPath></defs><g clip-path="url(#clip0)" transform="translate(1 -1993)"><rect x="0" y="1994" width="1650" height="1031" fill="#FFFFFF"/><g clip-path="url(#clip1)"><path d="M305.5 2546.58 1599.5 2546.58M305.5 2503.58 1599.5 2503.58M305.5 2461.58 1599.5 2461.58M305.5 2418.58 1599.5 2418.58M305.5 2376.58 1599.5 2376.58M305.5 2333.58 1599.5 2333.58M305.5 2291.58 1599.5 2291.58M305.5 2248.57 1599.5 2248.57M305.5 2206.57 1599.5 2206.57M305.5 2163.5 1599.5 2163.5" stroke="#D9D9D9" stroke-width="3.4375" stroke-linejoin="round" stroke-miterlimit="10" fill="none"/></g><g clip-path="url(#clip2)"><path d="M334.011 2242.07 359.012 2242.07 359.012 2589 334.011 2589ZM414.014 2242.07 440.014 2242.07 440.014 2589 414.014 2589ZM495.016 2242.07 521.017 2242.07 521.017 2589 495.016 2589ZM576.019 2265.07 601.02 2265.07 601.02 2589 576.019 2589ZM657.022 2218.07 682.022 2218.07 682.022 2589 657.022 2589ZM738.024 2253.07 763.025 2253.07 763.025 2589 738.024 2589ZM819.027 2364.08 844.028 2364.08 844.028 2589 819.027 2589ZM900.03 2242.07 925.03 2242.07 925.03 2589 900.03 2589ZM980.032 2242.07 1006.03 2242.07 1006.03 2589 980.032 2589ZM1061.03 2242.07 1087.04 2242.07 1087.04 2589 1061.03 2589ZM1142.04 2295.08 1167.04 2295.08 1167.04 2589 1142.04 2589ZM1223.04 2242.07 1248.04 2242.07 1248.04 2589 1223.04 2589ZM1304.04 2242.07 1329.04 2242.07 1329.04 2589 1304.04 2589ZM1385.05 2242.07 1410.05 2242.07 1410.05 2589 1385.05 2589ZM1466.05 2242.07 1491.05 2242.07 1491.05 2589 1466.05 2589ZM1546.05 2242.07 1572.05 2242.07 1572.05 2589 1546.05 2589Z" fill="#4472C4"/></g><g clip-path="url(#clip3)"><path d="M305.5 2588.5 1599.5 2588.5" stroke="#D9D9D9" stroke-width="3.4375" stroke-linejoin="round" stroke-miterlimit="10" fill="none" fill-rule="evenodd"/></g><g clip-path="url(#clip4)"><text fill="#595959" font-family="Calibri,Calibri_MSFontService,sans-serif" font-weight="400" font-size="41" transform="matrix(1 0 0 1 246.607 2600)">0</text></g><g clip-path="url(#clip5)"><text fill="#595959" font-family="Calibri,Calibri_MSFontService,sans-serif" font-weight="400" font-size="41" transform="matrix(1 0 0 1 215.303 2558)">0.1</text></g><g clip-path="url(#clip6)"><text fill="#595959" font-family="Calibri,Calibri_MSFontService,sans-serif" font-weight="400" font-size="41" transform="matrix(1 0 0 1 215.303 2515)">0.2</text></g><g clip-path="url(#clip7)"><text fill="#595959" font-family="Calibri,Calibri_MSFontService,sans-serif" font-weight="400" font-size="41" transform="matrix(1 0 0 1 215.303 2473)">0.3</text></g><g clip-path="url(#clip8)"><text fill="#595959" font-family="Calibri,Calibri_MSFontService,sans-serif" font-weight="400" font-size="41" transform="matrix(1 0 0 1 215.303 2430)">0.4</text></g><g clip-path="url(#clip9)"><text fill="#595959" font-family="Calibri,Calibri_MSFontService,sans-serif" font-weight="400" font-size="41" transform="matrix(1 0 0 1 215.303 2388)">0.5</text></g><g clip-path="url(#clip10)"><text fill="#595959" font-family="Calibri,Calibri_MSFontService,sans-serif" font-weight="400" font-size="41" transform="matrix(1 0 0 1 215.303 2345)">0.6</text></g><g clip-path="url(#clip11)"><text fill="#595959" font-family="Calibri,Calibri_MSFontService,sans-serif" font-weight="400" font-size="41" transform="matrix(1 0 0 1 215.303 2303)">0.7</text></g><g clip-path="url(#clip12)"><text fill="#595959" font-family="Calibri,Calibri_MSFontService,sans-serif" font-weight="400" font-size="41" transform="matrix(1 0 0 1 215.303 2260)">0.8</text></g><g clip-path="url(#clip13)"><text fill="#595959" font-family="Calibri,Calibri_MSFontService,sans-serif" font-weight="400" font-size="41" transform="matrix(1 0 0 1 215.303 2218)">0.9</text></g><g clip-path="url(#clip14)"><text fill="#595959" font-family="Calibri,Calibri_MSFontService,sans-serif" font-weight="400" font-size="41" transform="matrix(1 0 0 1 246.607 2175)">1</text></g><g clip-path="url(#clip15)"><g clip-path="url(#clip16)"><text fill="#595959" font-family="Calibri,Calibri_MSFontService,sans-serif" font-weight="400" font-size="41" transform="matrix(0.707107 -0.707107 0.707107 0.707107 50.4974 2948)">ð</text></g></g><g clip-path="url(#clip17)"><g clip-path="url(#clip18)"><text fill="#595959" font-family="Calibri,Calibri_MSFontService,sans-serif" font-weight="400" font-size="41" transform="matrix(0.707107 -0.707107 0.707107 0.707107 65.8269 2933)">„ð</text></g></g><g clip-path="url(#clip19)"><g clip-path="url(#clip20)"><text fill="#595959" font-family="Calibri,Calibri_MSFontService,sans-serif" font-weight="400" font-size="41" transform="matrix(0.707107 -0.707107 0.707107 0.707107 93.3584 2905)">§</text></g></g><g clip-path="url(#clip21)"><g clip-path="url(#clip22)"><text fill="#595959" font-family="Calibri,Calibri_MSFontService,sans-serif" font-weight="400" font-size="41" transform="matrix(0.707107 -0.707107 0.707107 0.707107 114.473 2884)">ð</text></g></g><g clip-path="url(#clip23)"><g clip-path="url(#clip24)"><text fill="#595959" font-family="Calibri,Calibri_MSFontService,sans-serif" font-weight="400" font-size="41" transform="matrix(0.707107 -0.707107 0.707107 0.707107 129.802 2869)">¦ð¢ ðœðšð¬ð¢ð</text></g></g><g clip-path="url(#clip25)"><g clip-path="url(#clip26)"><text fill="#595959" font-family="Calibri,Calibri_MSFontService,sans-serif" font-weight="400" font-size="41" transform="matrix(0.707107 -0.707107 0.707107 0.707107 322.636 2676)">ðš </text></g></g><g clip-path="url(#clip27)"><g clip-path="url(#clip28)"><text fill="#595959" font-family="Calibri,Calibri_MSFontService,sans-serif" font-weight="400" font-size="41" transform="matrix(0.707107 -0.707107 0.707107 0.707107 198.887 2962)">taekook Â¡! ðŸ’Œ                 </text></g></g><g clip-path="url(#clip29)"><text fill="#595959" font-family="Calibri,Calibri_MSFontService,sans-serif" font-weight="400" font-size="41" transform="matrix(0.707107 -0.707107 0.707107 0.707107 414.309 2827)">Procursus Repo</text></g><g clip-path="url(#clip30)"><g clip-path="url(#clip31)"><text fill="#595959" font-family="Calibri,Calibri_MSFontService,sans-serif" font-weight="400" font-size="41" transform="matrix(0.707107 -0.707107 0.707107 0.707107 898.727 2747)">ðŸ‡µðŸ‡</text></g></g><g clip-path="url(#clip32)"><text fill="#595959" font-family="Calibri,Calibri_MSFontService,sans-serif" font-weight="400" font-size="41" transform="matrix(0.707107 -0.707107 0.707107 0.707107 739.255 2987)">PJM, KSJ, MYG, KNJ, CSB, DJP</text></g><g clip-path="url(#clip33)"><g clip-path="url(#clip34)"><text fill="#595959" font-family="Calibri,Calibri_MSFontService,sans-serif" font-weight="400" font-size="41" transform="matrix(0.707107 -0.707107 0.707107 0.707107 1370.57 2760)">ðŸ‡²ðŸ‡½</text></g></g><g clip-path="url(#clip35)"><text fill="#595959" font-family="Calibri,Calibri_MSFontService,sans-serif" font-weight="400" font-size="41" transform="matrix(0.707107 -0.707107 0.707107 0.707107 1483.9 2728)">Taiwan</text></g><g clip-path="url(#clip36)"><text fill="#595959" font-family="Calibri,Calibri_MSFontService,sans-serif" font-weight="400" font-size="64" transform="matrix(1 0 0 1 424.817 2089)">Polarity confidence by location </text></g><rect x="0.499836" y="1994.5" width="1650" height="1031" stroke="#D9D9D9" stroke-width="3.4375" stroke-linejoin="round" stroke-miterlimit="10" fill="none"/></g></svg>