<svg width="1653" height="1034" xmlns="http://www.w3.org/2000/svg" xmlns:xlink="http://www.w3.org/1999/xlink" xml:space="preserve" overflow="hidden"><defs><clipPath id="clip0"><rect x="-1" y="205" width="1653" height="1034"/></clipPath><clipPath id="clip1"><rect x="0" y="206" width="1650" height="1031"/></clipPath><clipPath id="clip2"><rect x="212" y="376" width="1361" height="758"/></clipPath><clipPath id="clip3"><rect x="0" y="206" width="1650" height="1031"/></clipPath><clipPath id="clip4"><rect x="0" y="206" width="1650" height="1031"/></clipPath><clipPath id="clip5"><rect x="0" y="206" width="1650" height="1031"/></clipPath><clipPath id="clip6"><rect x="0" y="206" width="1650" height="1031"/></clipPath><clipPath id="clip7"><rect x="0" y="206" width="1650" height="1031"/></clipPath><clipPath id="clip8"><rect x="0" y="206" width="1650" height="1031"/></clipPath><clipPath id="clip9"><rect x="0" y="206" width="1650" height="1031"/></clipPath><clipPath id="clip10"><rect x="0" y="206" width="1650" height="1031"/></clipPath><clipPath id="clip11"><rect x="0" y="206" width="1650" height="1031"/></clipPath><clipPath id="clip12"><rect x="0" y="206" width="1650" height="1031"/></clipPath><clipPath id="clip13"><rect x="0" y="206" width="1650" height="1031"/></clipPath><clipPath id="clip14"><rect x="0" y="206" width="1650" height="1031"/></clipPath><clipPath id="clip15"><rect x="0" y="206" width="1650" height="1031"/></clipPath><clipPath id="clip16"><rect x="0" y="206" width="1650" height="1031"/></clipPath><clipPath id="clip17"><rect x="0" y="206" width="1650" height="1031"/></clipPath><clipPath id="clip18"><rect x="0" y="206" width="1650" height="1031"/></clipPath><clipPath id="clip19"><rect x="0" y="206" width="1650" height="1031"/></clipPath><clipPath id="clip20"><rect x="0" y="206" width="1650" height="1031"/></clipPath><clipPath id="clip21"><rect x="0" y="206" width="1650" height="1031"/></clipPath><clipPath id="clip22"><rect x="0" y="206" width="1650" height="1031"/></clipPath><clipPath id="clip23"><rect x="0" y="206" width="1650" height="1031"/></clipPath><clipPath id="clip24"><rect x="0" y="206" width="1650" height="1031"/></clipPath><clipPath id="clip25"><rect x="0" y="206" width="1650" height="1031"/></clipPath><clipPath id="clip26"><rect x="0" y="206" width="1650" height="1031"/></clipPath></defs><g clip-path="url(#clip0)" transform="translate(1 -205)"><rect x="0" y="206" width="1650" height="1031" fill="#FFFFFF"/><g clip-path="url(#clip1)"><path d="M212.5 1055.53 1569.5 1055.53M212.5 980.532 1569.5 980.532M212.5 904.53 1569.5 904.53M212.5 829.527 1569.5 829.527M212.5 753.525 1569.5 753.525M212.5 678.522 1569.5 678.522M212.5 602.52 1569.5 602.52M212.5 527.517 1569.5 527.517M212.5 451.515 1569.5 451.515M212.5 376.5 1569.5 376.5" stroke="#D9D9D9" stroke-width="3.4375" stroke-linejoin="round" stroke-miterlimit="10" fill="none"/></g><g clip-path="url(#clip2)"><path d="M244.008 446.015 272.009 446.015 272.009 1131 244.008 1131ZM334.011 1093.04 363.012 1093.04 363.012 1131 334.011 1131ZM425.014 1083.04 453.015 1083.04 453.015 1131 425.014 1131ZM515.017 1110.04 544.018 1110.04 544.018 1131 515.017 1131ZM606.02 1099.04 634.021 1099.04 634.021 1131 606.02 1131ZM696.023 1102.04 725.024 1102.04 725.024 1131 696.023 1131ZM787.026 1102.04 815.027 1102.04 815.027 1131 787.026 1131ZM877.029 1130.04 906.03 1130.04 906.03 1131 877.029 1131ZM968.032 1081.04 996.033 1081.04 996.033 1131 968.032 1131ZM1058.03 933.031 1087.04 933.031 1087.04 1131 1058.03 1131ZM1149.04 1122.04 1177.04 1122.04 1177.04 1131 1149.04 1131ZM1239.04 1104.04 1267.04 1104.04 1267.04 1131 1239.04 1131ZM1330.04 1093.04 1358.04 1093.04 1358.04 1131 1330.04 1131ZM1420.05 835.027 1448.05 835.027 1448.05 1131 1420.05 1131ZM1511.05 731.024 1539.05 731.024 1539.05 1131 1511.05 1131Z" fill="#4472C4"/></g><g clip-path="url(#clip3)"><path d="M212.5 1131.5 1569.5 1131.5" stroke="#D9D9D9" stroke-width="3.4375" stroke-linejoin="round" stroke-miterlimit="10" fill="none" fill-rule="evenodd"/></g><g clip-path="url(#clip4)"><text fill="#595959" font-family="Calibri,Calibri_MSFontService,sans-serif" font-weight="400" font-size="41" transform="matrix(1 0 0 1 153.79 1143)">0</text></g><g clip-path="url(#clip5)"><text fill="#595959" font-family="Calibri,Calibri_MSFontService,sans-serif" font-weight="400" font-size="41" transform="matrix(1 0 0 1 132.89 1067)">50</text></g><g clip-path="url(#clip6)"><text fill="#595959" font-family="Calibri,Calibri_MSFontService,sans-serif" font-weight="400" font-size="41" transform="matrix(1 0 0 1 111.99 992)">100</text></g><g clip-path="url(#clip7)"><text fill="#595959" font-family="Calibri,Calibri_MSFontService,sans-serif" font-weight="400" font-size="41" transform="matrix(1 0 0 1 111.99 916)">150</text></g><g clip-path="url(#clip8)"><text fill="#595959" font-family="Calibri,Calibri_MSFontService,sans-serif" font-weight="400" font-size="41" transform="matrix(1 0 0 1 111.99 841)">200</text></g><g clip-path="url(#clip9)"><text fill="#595959" font-family="Calibri,Calibri_MSFontService,sans-serif" font-weight="400" font-size="41" transform="matrix(1 0 0 1 111.99 765)">250</text></g><g clip-path="url(#clip10)"><text fill="#595959" font-family="Calibri,Calibri_MSFontService,sans-serif" font-weight="400" font-size="41" transform="matrix(1 0 0 1 111.99 690)">300</text></g><g clip-path="url(#clip11)"><text fill="#595959" font-family="Calibri,Calibri_MSFontService,sans-serif" font-weight="400" font-size="41" transform="matrix(1 0 0 1 111.99 614)">350</text></g><g clip-path="url(#clip12)"><text fill="#595959" font-family="Calibri,Calibri_MSFontService,sans-serif" font-weight="400" font-size="41" transform="matrix(1 0 0 1 111.99 539)">400</text></g><g clip-path="url(#clip13)"><text fill="#595959" font-family="Calibri,Calibri_MSFontService,sans-serif" font-weight="400" font-size="41" transform="matrix(1 0 0 1 111.99 463)">450</text></g><g clip-path="url(#clip14)"><text fill="#595959" font-family="Calibri,Calibri_MSFontService,sans-serif" font-weight="400" font-size="41" transform="matrix(1 0 0 1 111.99 388)">500</text></g><g clip-path="url(#clip15)"><text fill="#595959" font-family="Calibri,Calibri_MSFontService,sans-serif" font-weight="400" font-size="41" transform="matrix(1 0 0 1 42.1786 1196)">ð</text></g><g clip-path="url(#clip16)"><text fill="#595959" font-family="Calibri,Calibri_MSFontService,sans-serif" font-weight="400" font-size="41" transform="matrix(1 0 0 1 63.8577 1196)">„ð</text></g><g clip-path="url(#clip17)"><text fill="#595959" font-family="Calibri,Calibri_MSFontService,sans-serif" font-weight="400" font-size="41" transform="matrix(1 0 0 1 102.793 1196)">§</text></g><g clip-path="url(#clip18)"><text fill="#595959" font-family="Calibri,Calibri_MSFontService,sans-serif" font-weight="400" font-size="41" transform="matrix(1 0 0 1 132.654 1196)">ð</text></g><g clip-path="url(#clip19)"><text fill="#595959" font-family="Calibri,Calibri_MSFontService,sans-serif" font-weight="400" font-size="41" transform="matrix(1 0 0 1 154.333 1196)">¦ð¢ ðœðšð¬ð¢ð</text></g><g clip-path="url(#clip20)"><text fill="#595959" font-family="Calibri,Calibri_MSFontService,sans-serif" font-weight="400" font-size="41" transform="matrix(1 0 0 1 427.041 1196)">ðš </text></g><g clip-path="url(#clip21)"><text fill="#595959" font-family="Calibri,Calibri_MSFontService,sans-serif" font-weight="400" font-size="41" transform="matrix(1 0 0 1 213.683 1196)">taekook Â¡! ðŸ’Œ                 </text></g><g clip-path="url(#clip22)"><text fill="#595959" font-family="Calibri,Calibri_MSFontService,sans-serif" font-weight="400" font-size="41" transform="matrix(1 0 0 1 399.301 1196)">Procursus Repo</text></g><g clip-path="url(#clip23)"><text fill="#595959" font-family="Calibri,Calibri_MSFontService,sans-serif" font-weight="400" font-size="41" transform="matrix(1 0 0 1 908.277 1196)">ðŸ‡µðŸ‡</text></g><g clip-path="url(#clip24)"><text fill="#595959" font-family="Calibri,Calibri_MSFontService,sans-serif" font-weight="400" font-size="41" transform="matrix(1 0 0 1 828.805 1196)">PJM, KSJ, MYG, KNJ, CSB, DJP</text></g><g clip-path="url(#clip25)"><text fill="#595959" font-family="Calibri,Calibri_MSFontService,sans-serif" font-weight="400" font-size="41" transform="matrix(1 0 0 1 1441.65 1196)">ðŸ‡²ðŸ‡½</text></g><g clip-path="url(#clip26)"><text fill="#595959" font-family="Calibri,Calibri_MSFontService,sans-serif" font-weight="400" font-size="64" transform="matrix(1 0 0 1 482.831 302)">user_followers by location </text></g><rect x="0.499836" y="206.5" width="1650" height="1031" stroke="#D9D9D9" stroke-width="3.4375" stroke-linejoin="round" stroke-miterlimit="10" fill="none"/></g></svg>