<svg width="1601" height="1117" xmlns="http://www.w3.org/2000/svg" xmlns:xlink="http://www.w3.org/1999/xlink" xml:space="preserve" overflow="hidden"><defs><clipPath id="clip0"><rect x="1705" y="462" width="1601" height="1117"/></clipPath><clipPath id="clip1"><rect x="1705" y="463" width="1599" height="1114"/></clipPath><clipPath id="clip2"><rect x="1836" y="633" width="1421" height="790"/></clipPath><clipPath id="clip3"><rect x="1705" y="463" width="1599" height="1114"/></clipPath><clipPath id="clip4"><rect x="1705" y="463" width="1599" height="1114"/></clipPath><clipPath id="clip5"><rect x="1705" y="463" width="1599" height="1114"/></clipPath><clipPath id="clip6"><rect x="1705" y="463" width="1599" height="1114"/></clipPath><clipPath id="clip7"><rect x="1705" y="463" width="1599" height="1114"/></clipPath><clipPath id="clip8"><rect x="1705" y="463" width="1599" height="1114"/></clipPath><clipPath id="clip9"><rect x="1705" y="463" width="1599" height="1114"/></clipPath><clipPath id="clip10"><rect x="1705" y="463" width="1599" height="1114"/></clipPath><clipPath id="clip11"><rect x="1705" y="463" width="1599" height="1114"/></clipPath><clipPath id="clip12"><rect x="1705" y="463" width="1599" height="1114"/></clipPath><clipPath id="clip13"><rect x="1705" y="463" width="1599" height="1114"/></clipPath><clipPath id="clip14"><rect x="1705" y="463" width="1599" height="1114"/></clipPath><clipPath id="clip15"><rect x="1705" y="463" width="1599" height="1114"/></clipPath><clipPath id="clip16"><rect x="1705" y="463" width="1599" height="1114"/></clipPath><clipPath id="clip17"><rect x="1705" y="463" width="1599" height="1114"/></clipPath><clipPath id="clip18"><rect x="1705" y="463" width="1599" height="1114"/></clipPath><clipPath id="clip19"><rect x="1705" y="463" width="1599" height="1114"/></clipPath><clipPath id="clip20"><rect x="1705" y="463" width="1599" height="1114"/></clipPath><clipPath id="clip21"><rect x="1705" y="463" width="1599" height="1114"/></clipPath><clipPath id="clip22"><rect x="1705" y="463" width="1599" height="1114"/></clipPath><clipPath id="clip23"><rect x="1705" y="463" width="1599" height="1114"/></clipPath><clipPath id="clip24"><rect x="1705" y="463" width="1599" height="1114"/></clipPath><clipPath id="clip25"><rect x="1705" y="463" width="1599" height="1114"/></clipPath></defs><g clip-path="url(#clip0)" transform="translate(-1705 -462)"><rect x="1706" y="463" width="1598" height="1114" fill="#FFFFFF"/><g clip-path="url(#clip1)"><path d="M1836.5 1332.54 3253.5 1332.54M1836.5 1245.54 3253.5 1245.54M1836.5 1158.54 3253.5 1158.54M1836.5 1070.54 3253.5 1070.54M1836.5 983.532 3253.5 983.532M1836.5 895.53 3253.5 895.53M1836.5 808.527 3253.5 808.527M1836.5 720.524 3253.5 720.524M1836.5 633.5 3253.5 633.5" stroke="#D9D9D9" stroke-width="3.4375" stroke-linejoin="round" stroke-miterlimit="10" fill="none"/></g><g clip-path="url(#clip2)"><path d="M1934.06 672.022 2023.07 672.022 2023.07 1420 1934.06 1420ZM2217.07 880.029 2306.08 880.029 2306.08 1420 2217.07 1420ZM2501.08 1246.04 2589.08 1246.04 2589.08 1420 2501.08 1420ZM2784.09 1240.04 2873.09 1240.04 2873.09 1420 2784.09 1420ZM3067.1 1256.04 3156.1 1256.04 3156.1 1420 3067.1 1420Z" fill="#4472C4"/></g><g clip-path="url(#clip3)"><path d="M1836.5 1420.5 3253.5 1420.5" stroke="#D9D9D9" stroke-width="3.4375" stroke-linejoin="round" stroke-miterlimit="10" fill="none" fill-rule="evenodd"/></g><g clip-path="url(#clip4)"><text fill="#595959" font-family="Calibri,Calibri_MSFontService,sans-serif" font-weight="400" font-size="41" transform="matrix(1 0 0 1 1777.28 1432)">0</text></g><g clip-path="url(#clip5)"><text fill="#595959" font-family="Calibri,Calibri_MSFontService,sans-serif" font-weight="400" font-size="41" transform="matrix(1 0 0 1 1756.38 1345)">50</text></g><g clip-path="url(#clip6)"><text fill="#595959" font-family="Calibri,Calibri_MSFontService,sans-serif" font-weight="400" font-size="41" transform="matrix(1 0 0 1 1735.48 1257)">100</text></g><g clip-path="url(#clip7)"><text fill="#595959" font-family="Calibri,Calibri_MSFontService,sans-serif" font-weight="400" font-size="41" transform="matrix(1 0 0 1 1735.48 1170)">150</text></g><g clip-path="url(#clip8)"><text fill="#595959" font-family="Calibri,Calibri_MSFontService,sans-serif" font-weight="400" font-size="41" transform="matrix(1 0 0 1 1735.48 1082)">200</text></g><g clip-path="url(#clip9)"><text fill="#595959" font-family="Calibri,Calibri_MSFontService,sans-serif" font-weight="400" font-size="41" transform="matrix(1 0 0 1 1735.48 995)">250</text></g><g clip-path="url(#clip10)"><text fill="#595959" font-family="Calibri,Calibri_MSFontService,sans-serif" font-weight="400" font-size="41" transform="matrix(1 0 0 1 1735.48 907)">300</text></g><g clip-path="url(#clip11)"><text fill="#595959" font-family="Calibri,Calibri_MSFontService,sans-serif" font-weight="400" font-size="41" transform="matrix(1 0 0 1 1735.48 820)">350</text></g><g clip-path="url(#clip12)"><text fill="#595959" font-family="Calibri,Calibri_MSFontService,sans-serif" font-weight="400" font-size="41" transform="matrix(1 0 0 1 1735.48 732)">400</text></g><g clip-path="url(#clip13)"><text fill="#595959" font-family="Calibri,Calibri_MSFontService,sans-serif" font-weight="400" font-size="41" transform="matrix(1 0 0 1 1735.48 645)">450</text></g><g clip-path="url(#clip14)"><text fill="#595959" font-family="Calibri,Calibri_MSFontService,sans-serif" font-weight="400" font-size="41" transform="matrix(1 0 0 1 1886.04 1486)">ð</text></g><g clip-path="url(#clip15)"><text fill="#595959" font-family="Calibri,Calibri_MSFontService,sans-serif" font-weight="400" font-size="41" transform="matrix(1 0 0 1 1907.72 1486)">„ð</text></g><g clip-path="url(#clip16)"><text fill="#595959" font-family="Calibri,Calibri_MSFontService,sans-serif" font-weight="400" font-size="41" transform="matrix(1 0 0 1 1946.65 1486)">§</text></g><g clip-path="url(#clip17)"><text fill="#595959" font-family="Calibri,Calibri_MSFontService,sans-serif" font-weight="400" font-size="41" transform="matrix(1 0 0 1 1976.51 1486)">ð</text></g><g clip-path="url(#clip18)"><text fill="#595959" font-family="Calibri,Calibri_MSFontService,sans-serif" font-weight="400" font-size="41" transform="matrix(1 0 0 1 1998.19 1486)">¦ð¢ </text></g><g clip-path="url(#clip19)"><text fill="#595959" font-family="Calibri,Calibri_MSFontService,sans-serif" font-weight="400" font-size="41" transform="matrix(1 0 0 1 1854.27 1537)">ð</text></g><g clip-path="url(#clip20)"><text fill="#595959" font-family="Calibri,Calibri_MSFontService,sans-serif" font-weight="400" font-size="41" transform="matrix(1 0 0 1 1875.95 1537)">œðšð¬ð¢ð</text></g><g clip-path="url(#clip21)"><text fill="#595959" font-family="Calibri,Calibri_MSFontService,sans-serif" font-weight="400" font-size="41" transform="matrix(1 0 0 1 2054.91 1537)">ðš </text></g><g clip-path="url(#clip22)"><text fill="#595959" font-family="Calibri,Calibri_MSFontService,sans-serif" font-weight="400" font-size="41" transform="matrix(1 0 0 1 2395.04 1486)">taekook Â¡! </text></g><g clip-path="url(#clip23)"><text fill="#595959" font-family="Calibri,Calibri_MSFontService,sans-serif" font-weight="400" font-size="41" transform="matrix(1 0 0 1 2448.71 1537)">ðŸ’Œ                 </text></g><g clip-path="url(#clip24)"><text fill="#595959" font-family="Calibri,Calibri_MSFontService,sans-serif" font-weight="400" font-size="41" transform="matrix(1 0 0 1 2698.24 1486)">Procursus Repo</text></g><g clip-path="url(#clip25)"><text fill="#595959" font-family="Calibri,Calibri_MSFontService,sans-serif" font-weight="400" font-size="64" transform="matrix(1 0 0 1 2341.82 559)">user_friends</text></g><rect x="1706.5" y="463.5" width="1598" height="1114" stroke="#D9D9D9" stroke-width="3.4375" stroke-linejoin="round" stroke-miterlimit="10" fill="none"/></g></svg>